<?xml version="1.0" standalone="no"?>
<!DOCTYPE svg PUBLIC "-//W3C//DTD SVG 20010904//EN"
 "http://www.w3.org/TR/2001/REC-SVG-20010904/DTD/svg10.dtd">
<svg version="1.0" xmlns="http://www.w3.org/2000/svg"
 width="225.000000pt" height="225.000000pt" viewBox="0 0 225.000000 225.000000"
 preserveAspectRatio="xMidYMid meet">
<metadata>
Created by potrace 1.16, written by Peter Selinger 2001-2019
</metadata>
<g transform="translate(0.000000,225.000000) scale(0.100000,-0.100000)"
fill="#000000" stroke="none">
<path d="M1 1448 c1 -736 2 -793 15 -678 35 327 119 631 238 868 52 104 77
127 216 197 95 48 218 89 297 100 46 6 53 5 63 -15 15 -28 11 -31 -80 -59 -93
-29 -196 -80 -276 -136 -91 -65 -99 -83 -19 -43 107 54 250 104 365 129 88 19
137 23 300 23 270 0 416 -30 639 -135 121 -57 115 -40 -14 46 -78 52 -183 100
-275 126 -58 16 -64 22 -50 49 11 20 17 22 62 16 78 -11 205 -54 300 -103 142
-73 162 -91 214 -195 119 -237 203 -541 238 -868 13 -115 14 -58 15 678 l1
802 -1125 0 -1125 0 1 -802z"/>
<path d="M715 1201 c-63 -39 -95 -100 -95 -183 0 -122 98 -214 206 -194 47 9
109 67 130 122 34 90 -2 207 -79 254 -42 26 -121 26 -162 1z"/>
<path d="M1373 1200 c-111 -67 -123 -243 -23 -334 62 -56 128 -59 201 -11 115
75 101 286 -23 351 -39 20 -117 18 -155 -6z"/>
<path d="M383 646 c76 -74 159 -129 273 -183 l94 -44 -41 -55 c-48 -63 -60
-65 -200 -35 -177 40 -337 121 -455 233 l-54 51 0 -307 0 -306 1125 0 1125 0
0 306 0 307 -54 -51 c-120 -114 -283 -196 -461 -233 -140 -29 -146 -28 -194
35 l-41 55 94 44 c114 54 197 109 273 183 l58 55 -65 -41 c-218 -138 -432
-194 -735 -194 -303 0 -517 56 -735 194 l-65 41 58 -55z"/>
</g>
</svg>
