<svg id="svg" version="1.1" xmlns="http://www.w3.org/2000/svg" xmlns:xlink="http://www.w3.org/1999/xlink" width="400" height="309.8591549295774" viewBox="0, 0, 400,309.8591549295774"><g id="svgg"><path id="path0" d="M137.364 3.106 C 111.786 8.037,88.171 15.455,63.760 26.228 L 61.008 27.442 58.602 31.023 C 14.362 96.861,-5.439 172.533,1.078 250.853 C 1.605 257.179,1.231 256.435,5.360 259.377 C 25.452 273.696,46.819 285.857,67.550 294.772 C 81.233 300.657,101.464 307.921,102.880 307.458 C 104.955 306.779,124.031 275.810,124.031 273.121 C 124.031 272.061,123.871 271.959,119.380 270.142 C 113.862 267.910,109.177 265.766,102.946 262.621 C 93.990 258.101,91.496 256.607,91.478 255.750 C 91.473 255.533,97.125 250.891,98.244 250.192 C 98.726 249.891,99.683 250.204,104.006 252.073 C 145.122 269.851,188.570 276.011,231.938 270.211 C 252.615 267.445,275.169 261.090,294.574 252.561 C 301.588 249.478,300.871 249.557,303.361 251.598 C 304.516 252.545,306.081 253.765,306.839 254.309 C 309.256 256.045,309.139 256.168,300.758 260.668 C 295.041 263.736,287.376 267.313,280.930 269.918 C 275.853 271.971,275.659 272.082,275.659 272.955 C 275.659 275.514,294.847 306.697,296.909 307.489 C 298.100 307.945,319.237 300.361,331.762 294.982 C 354.009 285.429,376.871 272.380,395.872 258.390 C 398.656 256.339,398.322 257.213,398.883 250.534 C 400.464 231.741,400.342 205.370,398.597 188.217 C 397.077 173.287,395.420 162.792,392.387 148.906 C 383.689 109.071,367.123 70.368,343.086 33.723 L 339.070 27.601 333.488 25.133 C 320.909 19.570,304.271 13.587,290.749 9.765 C 279.267 6.520,257.871 1.870,256.468 2.315 C 255.605 2.589,249.679 14.062,246.802 21.030 L 245.736 23.610 244.496 23.435 C 214.520 19.189,180.350 19.194,155.582 23.447 C 154.461 23.640,154.404 23.605,153.923 22.444 C 151.991 17.771,144.943 3.823,143.954 2.713 C 143.338 2.023,142.822 2.054,137.364 3.106 M138.760 130.353 C 168.615 134.910,180.065 177.504,157.461 199.920 C 134.169 223.017,98.140 204.892,98.140 170.078 C 98.140 145.312,116.855 127.009,138.760 130.353 M271.628 130.376 C 301.631 134.954,313.023 177.494,290.275 200.009 C 265.934 224.100,228.093 202.542,231.026 166.255 C 232.864 143.520,251.256 127.267,271.628 130.376 " stroke="none" fill="#24242c" fill-rule="evenodd"></path><path id="path1" d="" stroke="none" fill="#28242c" fill-rule="evenodd"></path><path id="path2" d="" stroke="none" fill="#28242c" fill-rule="evenodd"></path><path id="path3" d="" stroke="none" fill="#28242c" fill-rule="evenodd"></path><path id="path4" d="" stroke="none" fill="#28242c" fill-rule="evenodd"></path></g></svg>