<?xml version="1.0" standalone="no"?>
<!DOCTYPE svg PUBLIC "-//W3C//DTD SVG 20010904//EN"
 "http://www.w3.org/TR/2001/REC-SVG-20010904/DTD/svg10.dtd">
<svg version="1.0" xmlns="http://www.w3.org/2000/svg"
 width="449.000000pt" height="223.000000pt" viewBox="0 0 449.000000 223.000000"
 preserveAspectRatio="xMidYMid meet">

<g transform="translate(0.000000,223.000000) scale(0.100000,-0.100000)"
fill="#000000" stroke="none">
<path d="M572 1955 c-267 -58 -462 -297 -465 -570 -1 -102 13 -173 53 -261 96
-213 301 -344 540 -344 187 0 360 83 466 223 72 96 72 172 0 243 -32 33 -52
44 -88 49 -68 10 -113 -8 -172 -72 -113 -122 -261 -138 -371 -41 -135 119
-112 334 46 413 115 59 215 39 313 -61 74 -74 91 -84 151 -84 60 0 109 23 143
68 23 30 27 46 27 96 0 52 -5 68 -32 108 -129 186 -382 282 -611 233z m233
-60 c108 -23 189 -68 272 -150 81 -81 97 -120 69 -173 -22 -42 -53 -62 -99
-62 -34 0 -46 7 -100 63 -87 88 -139 112 -247 112 -100 0 -159 -24 -223 -88
-61 -61 -91 -137 -91 -227 0 -127 64 -227 179 -282 128 -60 277 -28 377 81 52
57 88 75 128 66 38 -8 80 -55 86 -96 7 -44 -37 -113 -112 -174 -304 -247 -748
-110 -858 265 -20 65 -22 196 -5 265 50 208 224 369 437 405 72 12 111 11 187
-5z"/>
<path d="M605 1820 c-90 -18 -198 -84 -256 -155 -189 -235 -113 -574 158 -703
70 -33 88 -37 173 -40 114 -4 187 15 274 73 69 45 128 112 124 140 -6 38 -36
28 -88 -28 -222 -243 -627 -119 -678 208 -21 129 24 251 124 345 160 149 390
143 545 -15 36 -37 61 -55 74 -53 37 5 28 37 -30 97 -107 112 -266 162 -420
131z"/>
<path d="M1920 1951 c-19 -10 -42 -27 -51 -37 -14 -16 -157 -310 -206 -423
-14 -32 -13 -33 4 -26 10 5 113 11 228 15 198 5 212 7 255 30 107 59 114 131
32 301 -41 87 -58 111 -88 130 -50 31 -128 35 -174 10z m130 -56 c22 -12 41
-40 76 -111 56 -118 63 -151 36 -184 -11 -14 -22 -23 -24 -20 -2 3 -29 59 -60
125 -78 167 -79 167 -168 -19 l-69 -146 -41 0 c-22 0 -40 2 -40 4 0 4 48 108
130 280 37 77 97 103 160 71z m-10 -257 l39 -83 -27 -6 c-39 -9 -132 -10 -132
-1 0 10 72 172 77 172 2 0 22 -37 43 -82z"/>
<path d="M2870 1947 c-28 -15 -53 -38 -67 -63 -22 -37 -23 -49 -23 -269 1
-217 1 -228 17 -204 37 61 52 64 360 69 l283 5 27 28 c22 22 28 37 28 73 0 39
-5 50 -33 75 l-33 29 -182 -2 -182 -3 -5 -70 -5 -70 -37 -3 -38 -3 0 115 0
116 213 0 c227 0 269 -6 317 -47 80 -67 88 -179 19 -258 -51 -58 -94 -65 -386
-65 -278 0 -292 -3 -332 -59 -12 -16 -24 -44 -28 -62 l-6 -34 32 37 c19 22 48
42 69 48 21 5 146 10 279 10 134 0 264 5 292 11 131 28 217 167 182 296 -16
57 -68 123 -121 153 -45 25 -46 25 -315 25 l-270 0 -3 -137 -3 -138 -39 -20
-40 -20 0 157 c0 139 2 162 20 190 30 50 63 55 350 51 l256 -3 66 -33 c117
-57 183 -161 182 -288 -1 -127 -66 -229 -182 -286 l-67 -33 -287 -4 c-275 -3
-289 -4 -320 -25 -67 -46 -73 -63 -73 -216 0 -154 6 -170 75 -217 69 -48 185
-20 231 54 22 35 24 51 27 191 l4 152 146 0 c175 0 250 14 327 61 115 68 177
183 179 329 1 76 -3 92 -30 151 -44 93 -92 142 -182 187 l-76 37 -285 3 c-285
3 -286 3 -331 -21z m555 -337 c17 -18 17 -21 1 -45 -16 -25 -17 -25 -161 -25
l-145 0 0 45 0 45 143 0 c131 0 146 -2 162 -20z m-365 -540 c0 -149 -11 -190
-59 -214 -46 -24 -86 -20 -123 13 l-33 29 -3 114 c-4 112 -3 115 23 146 48 57
54 47 57 -100 l3 -133 25 0 25 0 3 138 3 137 39 0 40 0 0 -130z"/>
<path d="M4095 1956 c-49 -19 -90 -63 -104 -113 -14 -51 -15 -884 -1 -935 13
-44 52 -93 91 -113 36 -19 112 -19 148 -1 47 25 89 81 96 128 3 24 5 241 3
484 l-3 440 -27 42 c-16 23 -39 49 -53 58 -35 23 -102 27 -150 10z m137 -85
c16 -18 29 -47 33 -73 3 -24 5 -232 3 -463 -3 -382 -5 -422 -21 -446 -43 -64
-133 -64 -184 1 -9 11 -12 130 -13 480 0 514 -2 496 64 526 42 19 86 10 118
-25z"/>
<path d="M4132 1818 c-9 -9 -12 -120 -12 -439 0 -235 3 -434 6 -443 7 -19 35
-21 52 -4 9 9 12 121 12 443 0 434 -2 455 -35 455 -6 0 -16 -5 -23 -12z"/>
<path d="M2530 1669 c0 -5 5 -7 10 -4 6 3 10 8 10 11 0 2 -4 4 -10 4 -5 0 -10
-5 -10 -11z"/>
<path d="M2276 1470 c-51 -52 -104 -62 -361 -69 -247 -7 -250 -7 -312 -64 -34
-30 -28 -38 15 -20 30 14 87 18 292 23 240 5 258 7 302 29 51 24 82 60 93 104
9 34 7 33 -29 -3z"/>
<path d="M2351 1346 c-67 -69 -110 -78 -426 -85 -275 -7 -281 -7 -330 -33 -65
-33 -75 -46 -124 -147 -32 -66 -41 -97 -41 -136 0 -128 133 -205 250 -145 46
23 61 48 156 253 l68 147 93 0 94 0 88 -183 c105 -218 118 -232 221 -232 77 0
119 24 150 85 38 74 32 96 -102 378 l-63 133 -34 -35z m82 -212 c42 -91 77
-175 77 -185 0 -28 -26 -75 -52 -93 -29 -21 -87 -20 -117 1 -14 9 -55 82 -103
181 -43 91 -77 166 -76 167 2 1 19 5 39 8 l36 5 71 -149 c58 -122 74 -149 92
-149 11 0 23 7 27 16 3 9 -24 78 -64 162 l-70 147 26 27 c14 15 28 27 31 27 3
0 40 -74 83 -165z m-603 60 c0 -3 -33 -76 -72 -161 -79 -168 -100 -193 -167
-193 -24 0 -42 9 -67 34 -47 47 -45 82 9 187 35 71 49 88 85 108 24 13 46 21
49 18 3 -4 -18 -56 -47 -116 -28 -61 -50 -118 -48 -128 2 -10 13 -19 25 -21
19 -3 27 6 47 50 13 29 42 92 65 141 l41 87 40 0 c22 0 40 -3 40 -6z"/>
<path d="M2660 1309 c0 -5 5 -7 10 -4 6 3 10 8 10 11 0 2 -4 4 -10 4 -5 0 -10
-5 -10 -11z"/>
<path d="M717 483 c-4 -3 -7 -75 -7 -160 l0 -153 109 0 c101 0 110 2 135 25
34 32 37 94 4 125 -22 20 -22 21 -4 50 24 41 14 86 -24 105 -30 15 -200 22
-213 8z m164 -53 c21 -12 25 -40 7 -58 -7 -7 -34 -12 -60 -12 -48 0 -48 0 -48
33 0 19 3 37 7 40 10 11 72 8 94 -3z m17 -132 c16 -16 15 -53 -2 -67 -8 -7
-36 -11 -63 -9 l-48 3 -3 43 -3 42 53 0 c30 0 59 -5 66 -12z"/>
<path d="M1677 483 c-4 -3 -7 -56 -7 -116 0 -129 15 -172 66 -193 43 -18 105
-18 148 0 52 22 66 64 66 200 l0 116 -35 0 -35 0 0 -118 c0 -135 -8 -152 -73
-152 -57 0 -67 23 -67 157 l0 113 -28 0 c-16 0 -32 -3 -35 -7z"/>
<path d="M2650 330 l0 -160 110 0 110 0 0 25 c0 23 -3 24 -77 27 l-78 3 -3
133 -3 132 -29 0 -30 0 0 -160z"/>
<path d="M3490 330 l0 -160 115 0 115 0 0 25 c0 23 -3 24 -77 27 l-78 3 -3
133 -3 132 -34 0 -35 0 0 -160z"/>
</g>
</svg>
