<?xml version="1.0" standalone="no"?>
<!DOCTYPE svg PUBLIC "-//W3C//DTD SVG 20010904//EN"
 "http://www.w3.org/TR/2001/REC-SVG-20010904/DTD/svg10.dtd">
<svg version="1.0" xmlns="http://www.w3.org/2000/svg"
 width="884.000000pt" height="407.000000pt" viewBox="0 0 884.000000 407.000000"
 preserveAspectRatio="xMidYMid meet">
<metadata>
Created by potrace 1.16, written by Peter Selinger 2001-2019
</metadata>
<g transform="translate(0.000000,407.000000) scale(0.100000,-0.100000)"
fill="#000000" stroke="none">
<path d="M0 2035 l0 -2035 4420 0 4420 0 0 2035 0 2035 -4420 0 -4420 0 0
-2035z m1433 1680 c238 -36 453 -143 621 -311 147 -147 192 -234 184 -358 -6
-87 -38 -156 -98 -210 -68 -61 -121 -81 -220 -81 -116 0 -158 23 -273 149 -72
78 -101 102 -161 131 -188 93 -401 59 -547 -86 -228 -228 -165 -612 125 -754
137 -67 282 -68 416 -3 61 30 95 59 224 196 66 69 134 96 231 90 171 -11 292
-128 303 -294 8 -122 -27 -193 -167 -337 -162 -168 -351 -272 -587 -323 -115
-25 -322 -23 -440 4 -398 90 -700 362 -828 747 -147 441 11 943 386 1225 240
181 540 259 831 215z m2374 -7 c96 -36 144 -95 233 -287 91 -198 98 -219 99
-302 2 -121 -73 -218 -206 -270 -55 -21 -79 -23 -403 -30 -326 -6 -424 -15
-473 -41 -15 -7 -18 -6 -15 5 1 8 86 192 188 408 166 353 190 399 235 445 90
91 220 118 342 72z m2618 7 c148 -31 265 -94 368 -200 87 -87 129 -156 170
-272 25 -73 31 -108 35 -203 5 -144 -11 -220 -75 -350 -39 -79 -62 -110 -133
-181 -73 -73 -101 -94 -180 -132 -152 -73 -182 -77 -528 -77 l-302 0 0 -240
c0 -238 -8 -316 -37 -375 -44 -87 -129 -153 -227 -175 -113 -25 -260 37 -323
136 -50 79 -55 109 -51 334 3 190 5 208 26 251 31 62 94 124 161 157 l56 27
515 6 c564 6 542 4 672 71 136 70 253 219 293 375 19 73 19 222 0 293 -42 161
-164 313 -306 383 -127 63 -172 67 -677 67 -277 0 -461 -4 -484 -10 -48 -14
-94 -53 -118 -101 -19 -35 -20 -60 -20 -329 0 -161 3 -290 8 -288 46 24 107
48 118 48 12 0 14 42 14 254 0 252 0 255 22 270 20 14 80 16 459 16 255 0 459
-4 490 -10 118 -23 233 -99 295 -196 57 -88 77 -164 72 -274 -3 -81 -8 -105
-35 -163 -35 -75 -116 -166 -178 -203 -102 -59 -87 -58 -645 -64 l-515 -5 -62
-29 c-58 -26 -117 -79 -150 -132 -11 -18 -12 -17 -12 7 -3 96 79 211 177 251
56 22 65 23 562 28 l505 5 51 27 c62 33 113 84 151 152 25 46 28 60 28 151 0
92 -2 104 -29 153 -37 66 -92 116 -165 151 l-56 26 -422 3 -423 3 0 -205 0
-206 70 0 70 0 0 119 c0 113 1 121 22 135 19 14 68 16 333 16 348 0 360 -3
422 -73 78 -89 47 -244 -59 -296 -43 -20 -56 -21 -493 -21 -280 0 -472 -4
-511 -11 -84 -15 -160 -61 -201 -123 l-33 -48 0 415 c0 390 1 420 20 469 34
93 102 157 201 192 64 22 959 23 1064 1z m1392 -7 c78 -29 152 -103 182 -182
l21 -58 -2 -866 -3 -867 -28 -58 c-31 -62 -98 -122 -171 -152 -55 -23 -174
-21 -231 4 -103 46 -175 133 -194 237 -7 38 -11 335 -11 865 0 775 1 809 20
871 54 176 245 271 417 206z m-3541 -863 c-25 -129 -112 -222 -251 -265 -28
-9 -166 -15 -455 -20 -437 -7 -509 -14 -617 -61 -25 -11 -47 -18 -49 -16 -2 1
5 17 16 35 34 56 133 117 234 143 24 7 207 14 436 19 368 6 400 8 462 28 83
28 154 75 193 129 16 23 32 42 34 42 2 1 0 -15 -3 -34z m304 -573 c183 -388
194 -424 166 -523 -26 -96 -80 -165 -159 -205 -131 -67 -273 -46 -374 56 -43
42 -53 61 -247 475 l-103 220 -172 3 -172 2 -36 -77 c-20 -43 -89 -190 -154
-328 -108 -229 -123 -254 -173 -301 -95 -90 -225 -114 -336 -62 -100 46 -154
107 -184 208 -30 100 -17 155 80 355 83 168 139 226 269 274 108 40 239 51
647 51 420 0 480 6 595 61 43 21 88 53 123 89 30 31 58 54 62 51 4 -4 79 -160
168 -349z m-2882 -1321 c55 -28 76 -68 70 -138 -4 -42 -11 -60 -34 -84 l-29
-30 34 -26 c78 -61 83 -182 9 -250 -49 -46 -86 -53 -272 -53 -149 0 -175 2
-180 16 -3 9 -6 141 -6 294 0 255 2 280 18 290 11 7 72 10 183 7 143 -4 171
-7 207 -26z m1514 -6 c5 -16 8 -104 7 -195 -2 -224 -3 -217 30 -251 26 -26 36
-29 90 -29 48 0 65 4 87 23 35 31 42 81 43 303 1 189 -1 184 66 184 68 0 65 9
65 -221 0 -186 -2 -214 -21 -263 -35 -96 -118 -142 -245 -139 -120 3 -184 36
-227 117 -20 38 -22 57 -25 265 -3 177 -1 226 10 233 7 4 35 7 62 6 46 -3 50
-5 58 -33z m1792 29 c14 -5 16 -34 16 -219 0 -117 3 -226 6 -243 l6 -31 142
-3 141 -3 0 -50 0 -50 -210 0 -210 0 -3 297 c-2 276 -1 297 15 301 28 7 80 8
97 1z m1581 -10 c14 -14 16 -45 15 -228 -1 -116 -1 -221 -1 -233 1 -22 4 -23
144 -25 l142 -3 0 -50 0 -50 -210 0 -210 0 -3 293 -2 293 22 9 c36 14 85 11
103 -6z"/>
<path d="M1136 3599 c-401 -58 -726 -353 -826 -747 -41 -159 -36 -364 12 -522
47 -153 161 -336 275 -440 325 -297 803 -350 1175 -129 139 82 282 218 332
316 18 36 21 118 5 160 -25 67 -109 122 -187 123 -58 0 -103 -21 -143 -66 -94
-107 -171 -173 -232 -202 -105 -50 -172 -65 -282 -65 -167 0 -302 60 -422 187
-135 142 -194 353 -148 529 63 244 239 412 477 457 120 23 265 -1 381 -62 70
-37 165 -121 207 -183 64 -94 203 -111 291 -38 66 56 88 156 50 238 -30 67
-166 208 -270 278 -203 140 -458 200 -695 166z m349 -159 c169 -43 332 -147
440 -277 58 -71 67 -103 38 -135 -25 -27 -58 -22 -90 15 -67 77 -164 164 -216
196 -295 175 -645 137 -889 -97 -305 -293 -303 -767 4 -1057 119 -112 253
-175 418 -195 241 -29 488 68 640 252 29 35 58 66 64 70 34 23 86 -8 86 -52 0
-31 -77 -126 -158 -195 -126 -106 -292 -176 -467 -195 -512 -58 -964 377 -932
895 17 271 151 504 380 660 90 61 235 118 339 134 90 14 250 5 343 -19z"/>
<path d="M3600 3591 c-19 -11 -45 -30 -57 -43 -19 -20 -307 -618 -301 -623 2
-1 39 3 82 9 l79 11 117 247 c64 136 123 254 130 263 16 19 64 20 79 1 7 -8
59 -113 116 -233 57 -121 109 -218 116 -218 7 0 24 16 37 35 20 30 23 44 20
95 -4 49 -18 89 -77 215 -40 85 -84 170 -98 189 -50 66 -168 91 -243 52z"/>
<path d="M3612 3107 c-40 -84 -72 -156 -72 -160 0 -9 272 -9 286 1 8 5 -12 57
-60 160 -39 83 -74 152 -77 152 -3 0 -38 -69 -77 -153z"/>
<path d="M5780 3015 l0 -75 270 0 c257 0 271 1 290 20 30 30 27 83 -6 109 -25
20 -39 21 -290 21 l-264 0 0 -75z"/>
<path d="M5518 2050 c-3 -273 -5 -282 -64 -282 -51 0 -54 15 -54 274 0 170 -3
238 -11 238 -26 0 -81 -44 -104 -84 -24 -42 -25 -48 -25 -235 0 -200 4 -224
49 -275 29 -33 93 -59 146 -59 53 0 117 26 146 59 51 58 53 74 57 352 l4 262
-71 0 -70 0 -3 -250z"/>
<path d="M7630 3594 c-42 -18 -86 -58 -108 -99 -15 -27 -17 -108 -20 -850 -2
-579 0 -833 8 -865 23 -92 100 -153 195 -153 53 0 117 26 147 60 49 54 48 35
48 931 0 490 -3 850 -9 864 -38 99 -164 154 -261 112z m118 -142 c9 -12 12
-195 12 -839 l0 -822 -27 -15 c-36 -17 -70 -5 -83 29 -14 38 -14 1610 1 1636
20 38 70 43 97 11z"/>
<path d="M4294 2431 l-52 -56 131 -275 c123 -260 129 -276 116 -300 -21 -36
-82 -41 -100 -8 -14 24 -140 286 -214 444 l-42 91 -70 -15 -70 -15 114 -241
c63 -133 128 -269 144 -304 22 -44 42 -70 70 -89 136 -90 310 -4 313 155 1 53
-8 77 -143 362 -79 168 -144 305 -145 306 0 1 -24 -24 -52 -55z"/>
<path d="M3237 2288 c-9 -7 -68 -123 -132 -258 -64 -134 -121 -248 -128 -252
-24 -16 -71 -4 -86 23 -14 25 -9 36 88 243 56 120 100 220 97 223 -2 3 -28 -3
-58 -13 -85 -28 -142 -94 -211 -246 -66 -145 -74 -176 -58 -236 24 -86 104
-145 197 -144 115 1 142 34 303 377 72 154 131 283 131 288 0 12 -125 8 -143
-5z"/>
<path d="M1430 800 l0 -70 83 0 c103 0 127 13 127 70 0 57 -24 70 -127 70
l-83 0 0 -70z"/>
<path d="M1434 627 c-3 -8 -4 -45 -2 -83 l3 -69 77 -3 c103 -4 144 13 154 62
7 43 -14 82 -52 96 -40 16 -174 13 -180 -3z"/>
</g>
</svg>
